<mxfile host="app.diagrams.net" modified="2023-08-10T13:19:08.869Z" agent="Mozilla/5.0 (X11; Linux x86_64) AppleWebKit/537.36 (KHTML, like Gecko) Chrome/115.0.0.0 Safari/537.36" etag="EztRnNo1FRQ8QH4EtRLP" version="21.6.6" type="github">
  <diagram name="Page-1" id="X27ac8u39coNUNje7C8m">
    <mxGraphModel dx="1434" dy="805" grid="1" gridSize="10" guides="1" tooltips="1" connect="1" arrows="1" fold="1" page="1" pageScale="1" pageWidth="827" pageHeight="1169" math="0" shadow="0">
      <root>
        <mxCell id="0" />
        <mxCell id="1" parent="0" />
        <mxCell id="l4lcACn5Gt8YjHm1gJDb-1" value="Question 1" style="rounded=0;whiteSpace=wrap;html=1;" vertex="1" parent="1">
          <mxGeometry x="20" y="100" width="120" height="60" as="geometry" />
        </mxCell>
        <mxCell id="l4lcACn5Gt8YjHm1gJDb-2" value="" style="endArrow=classic;html=1;rounded=0;exitX=1;exitY=0.5;exitDx=0;exitDy=0;entryX=0;entryY=0.5;entryDx=0;entryDy=0;" edge="1" parent="1" source="l4lcACn5Gt8YjHm1gJDb-1" target="l4lcACn5Gt8YjHm1gJDb-3">
          <mxGeometry width="50" height="50" relative="1" as="geometry">
            <mxPoint x="220" y="160" as="sourcePoint" />
            <mxPoint x="220" y="120" as="targetPoint" />
          </mxGeometry>
        </mxCell>
        <mxCell id="l4lcACn5Gt8YjHm1gJDb-3" value="Grade distribution chart over all students&lt;br&gt;Bar chart if MCQ, grades&lt;br&gt;lineplot if percentage" style="shape=process;whiteSpace=wrap;html=1;backgroundOutline=1;" vertex="1" parent="1">
          <mxGeometry x="260" y="70" width="200" height="80" as="geometry" />
        </mxCell>
      </root>
    </mxGraphModel>
  </diagram>
</mxfile>
